# xmcd
#
# Track frame offsets:
#	150
#	30391
#	50782
#	64601
#	89515
#	108573
#	123779
#	138410
#	157098
#
# Disc length: 2360 seconds
# Revision: 0
# Processed by: cddbd v1.5.2PL0 Copyright (c) Steve Scherf et al.
# Submitted via: dBpowerAMP V12.0
#
DISCID=79093609
DTITLE=The Stray Roots - Voodoo and Majic
DYEAR=2012
DGENRE=Blues
TTITLE0=Beefheart Rap
TTITLE1=Got A Feeling
TTITLE2=Looking For My Baby
TTITLE3=The Preacher and The Whore
TTITLE4=It's Ok
TTITLE5=Oh Baby
TTITLE6=Sandpaper Sandy
TTITLE7=Voodoo and Majic
TTITLE8=The Way It Should Be?
EXTD=
EXTT0=
EXTT1=
EXTT2=
EXTT3=
EXTT4=
EXTT5=
EXTT6=
EXTT7=
EXTT8=
PLAYORDER=
